<?xml version="1.0" encoding="UTF-8" standalone="no"?>
<svg
   xmlns:dc="http://purl.org/dc/elements/1.1/"
   xmlns:cc="http://creativecommons.org/ns#"
   xmlns:rdf="http://www.w3.org/1999/02/22-rdf-syntax-ns#"
   xmlns:svg="http://www.w3.org/2000/svg"
   xmlns="http://www.w3.org/2000/svg"
   xmlns:sodipodi="http://sodipodi.sourceforge.net/DTD/sodipodi-0.dtd"
   xmlns:inkscape="http://www.inkscape.org/namespaces/inkscape"
   viewBox="0 0 170.07874 120.94489"
   version="1.1"
   stroke-linecap="round"
   stroke-linejoin="round"
   fill-rule="evenodd"
   xml:space="preserve"
   id="svg219"
   sodipodi:docname="Profil 45 X 32 F.svg"
   width="45mm"
   height="32mm"
   inkscape:version="1.0.1 (3bc2e813f5, 2020-09-07)"><metadata
   id="metadata223"><rdf:RDF><cc:Work
       rdf:about=""><dc:format>image/svg+xml</dc:format><dc:type
         rdf:resource="http://purl.org/dc/dcmitype/StillImage" /><dc:title></dc:title></cc:Work></rdf:RDF></metadata><sodipodi:namedview
   pagecolor="#ffffff"
   bordercolor="#666666"
   borderopacity="1"
   objecttolerance="10"
   gridtolerance="10"
   guidetolerance="10"
   inkscape:pageopacity="0"
   inkscape:pageshadow="2"
   inkscape:window-width="1920"
   inkscape:window-height="1003"
   id="namedview221"
   showgrid="false"
   units="mm"
   inkscape:zoom="3.1791341"
   inkscape:cx="52.281217"
   inkscape:cy="67.744862"
   inkscape:window-x="0"
   inkscape:window-y="40"
   inkscape:window-maximized="1"
   inkscape:current-layer="svg219"
   inkscape:document-rotation="0"
   inkscape:document-units="mm" />
<defs
   id="defs5">
<clipPath
   id="clipId0">
<path
   d="M 0,768 H 1024 V 0 H 0 Z"
   id="path2" />
</clipPath>
</defs>
<g
   clip-path="url(#clipId0)"
   fill="none"
   stroke="#000000"
   stroke-width="0.1"
   id="g7"
   style="stroke-width:0.37795276;stroke-miterlimit:4;stroke-dasharray:none" />
<g
   clip-path="url(#clipId0)"
   fill="none"
   stroke="#000000"
   stroke-width="0.25"
   id="g217"
   style="stroke-width:2.23121399;stroke-miterlimit:4;stroke-dasharray:none"
   transform="matrix(0.1694145,0,0,0.1694145,-1.700786,-4.5826791)">
<polyline
   points="663.704,444.235 619.085,399.617 "
   id="polyline9"
   style="stroke-width:2.23121399;stroke-miterlimit:4;stroke-dasharray:none" />
<polyline
   points="717.246,390.693 672.627,346.074 "
   id="polyline11"
   style="stroke-width:2.23121399;stroke-miterlimit:4;stroke-dasharray:none" />
<polyline
   points="436.28,336.795 414.194,314.71 "
   id="polyline13"
   style="stroke-width:2.23121399;stroke-miterlimit:4;stroke-dasharray:none" />
<polyline
   points="609.806,305.245 588.283,283.722 "
   id="polyline15"
   style="stroke-width:2.23121399;stroke-miterlimit:4;stroke-dasharray:none" />
<polyline
   points="435.717,194.256 414.194,172.734 "
   id="polyline17"
   style="stroke-width:2.23121399;stroke-miterlimit:4;stroke-dasharray:none" />
<polyline
   points="578.255,336.795 556.733,315.273 "
   id="polyline19"
   style="stroke-width:2.23121399;stroke-miterlimit:4;stroke-dasharray:none" />
<polyline
   points="609.806,163.269 587.72,141.183 "
   id="polyline21"
   style="stroke-width:2.23121399;stroke-miterlimit:4;stroke-dasharray:none" />
<polyline
   points="467.267,162.706 445.745,141.183 "
   id="polyline23"
   style="stroke-width:2.23121399;stroke-miterlimit:4;stroke-dasharray:none" />
<polyline
   points="351.373,131.904 306.754,87.2854 "
   id="polyline25"
   style="stroke-width:2.23121399;stroke-miterlimit:4;stroke-dasharray:none" />
<polyline
   points="610.161,740.95 958.187,740.95 "
   id="polyline27"
   style="stroke-width:2.23121399;stroke-miterlimit:4;stroke-dasharray:none" />
<polyline
   points="65.8126,740.95 413.839,740.95 "
   id="polyline29"
   style="stroke-width:2.23121399;stroke-miterlimit:4;stroke-dasharray:none" />
<polyline
   points="166.205,696.331 304.523,696.331 "
   id="polyline31"
   style="stroke-width:2.23121399;stroke-miterlimit:4;stroke-dasharray:none" />
<polyline
   points="719.477,696.331 857.795,696.331 "
   id="polyline33"
   style="stroke-width:2.23121399;stroke-miterlimit:4;stroke-dasharray:none" />
<polyline
   points="366.989,640.558 409.377,640.558 "
   id="polyline35"
   style="stroke-width:2.23121399;stroke-miterlimit:4;stroke-dasharray:none" />
<polyline
   points="614.623,640.558 657.011,640.558 "
   id="polyline37"
   style="stroke-width:2.23121399;stroke-miterlimit:4;stroke-dasharray:none" />
<polyline
   points="65.8127,435.311 204.131,435.311 "
   id="polyline39"
   style="stroke-width:2.23121399;stroke-miterlimit:4;stroke-dasharray:none" />
<polyline
   points="819.869,435.311 958.187,435.311 "
   id="polyline41"
   style="stroke-width:2.23121399;stroke-miterlimit:4;stroke-dasharray:none" />
<polyline
   points="404.915,399.617 619.085,399.617 "
   id="polyline43"
   style="stroke-width:2.23121399;stroke-miterlimit:4;stroke-dasharray:none" />
<polyline
   points="117.124,390.693 306.754,390.693 "
   id="polyline45"
   style="stroke-width:2.23121399;stroke-miterlimit:4;stroke-dasharray:none" />
<polyline
   points="717.246,390.693 906.876,390.693 "
   id="polyline47"
   style="stroke-width:2.23121399;stroke-miterlimit:4;stroke-dasharray:none" />
<polyline
   points="16.732,330.458 99.2767,330.458 "
   id="polyline49"
   style="stroke-width:2.23121399;stroke-miterlimit:4;stroke-dasharray:none" />
<polyline
   points="924.723,330.458 1007.27,330.458 "
   id="polyline51"
   style="stroke-width:2.23121399;stroke-miterlimit:4;stroke-dasharray:none" />
<polyline
   points="16.732,147.521 99.2767,147.521 "
   id="polyline53"
   style="stroke-width:2.23121399;stroke-miterlimit:4;stroke-dasharray:none" />
<polyline
   points="924.723,147.521 1007.27,147.521 "
   id="polyline55"
   style="stroke-width:2.23121399;stroke-miterlimit:4;stroke-dasharray:none" />
<polyline
   points="117.124,87.2854 306.754,87.2854 "
   id="polyline57"
   style="stroke-width:2.23121399;stroke-miterlimit:4;stroke-dasharray:none" />
<polyline
   points="717.246,87.2854 906.876,87.2854 "
   id="polyline59"
   style="stroke-width:2.23121399;stroke-miterlimit:4;stroke-dasharray:none" />
<polyline
   points="65.8126,27.0501 958.187,27.0501 "
   id="polyline61"
   style="stroke-width:2.23121399;stroke-miterlimit:4;stroke-dasharray:none" />
<polyline
   points="360.296,444.235 404.915,399.617 "
   id="polyline63"
   style="stroke-width:2.23121399;stroke-miterlimit:4;stroke-dasharray:none" />
<polyline
   points="306.754,390.693 351.373,346.074 "
   id="polyline65"
   style="stroke-width:2.23121399;stroke-miterlimit:4;stroke-dasharray:none" />
<polyline
   points="587.72,336.795 609.806,314.71 "
   id="polyline67"
   style="stroke-width:2.23121399;stroke-miterlimit:4;stroke-dasharray:none" />
<polyline
   points="445.745,336.795 467.267,315.273 "
   id="polyline69"
   style="stroke-width:2.23121399;stroke-miterlimit:4;stroke-dasharray:none" />
<polyline
   points="414.194,305.245 435.717,283.722 "
   id="polyline71"
   style="stroke-width:2.23121399;stroke-miterlimit:4;stroke-dasharray:none" />
<polyline
   points="588.283,194.256 609.806,172.734 "
   id="polyline73"
   style="stroke-width:2.23121399;stroke-miterlimit:4;stroke-dasharray:none" />
<polyline
   points="414.194,163.269 436.28,141.183 "
   id="polyline75"
   style="stroke-width:2.23121399;stroke-miterlimit:4;stroke-dasharray:none" />
<polyline
   points="556.733,162.706 578.255,141.183 "
   id="polyline77"
   style="stroke-width:2.23121399;stroke-miterlimit:4;stroke-dasharray:none" />
<polyline
   points="672.627,131.904 717.246,87.2854 "
   id="polyline79"
   style="stroke-width:2.23121399;stroke-miterlimit:4;stroke-dasharray:none" />
<polyline
   points="10.0392,140.828 10.0392,82.8235 "
   id="polyline81"
   style="stroke-width:2.23121399;stroke-miterlimit:4;stroke-dasharray:none" />
<polyline
   points="10.0392,685.176 10.0392,337.15 "
   id="polyline83"
   style="stroke-width:2.23121399;stroke-miterlimit:4;stroke-dasharray:none" />
<polyline
   points="54.658,584.784 54.658,446.466 "
   id="polyline85"
   style="stroke-width:2.23121399;stroke-miterlimit:4;stroke-dasharray:none" />
<polyline
   points="110.431,136.366 110.431,93.9782 "
   id="polyline87"
   style="stroke-width:2.23121399;stroke-miterlimit:4;stroke-dasharray:none" />
<polyline
   points="110.431,384 110.431,341.612 "
   id="polyline89"
   style="stroke-width:2.23121399;stroke-miterlimit:4;stroke-dasharray:none" />
<polyline
   points="315.678,685.177 315.678,546.858 "
   id="polyline91"
   style="stroke-width:2.23121399;stroke-miterlimit:4;stroke-dasharray:none" />
<polyline
   points="351.373,346.074 351.373,131.904 "
   id="polyline93"
   style="stroke-width:2.23121399;stroke-miterlimit:4;stroke-dasharray:none" />
<polyline
   points="360.296,633.865 360.296,444.235 "
   id="polyline95"
   style="stroke-width:2.23121399;stroke-miterlimit:4;stroke-dasharray:none" />
<polyline
   points="420.532,734.257 420.532,651.712 "
   id="polyline97"
   style="stroke-width:2.23121399;stroke-miterlimit:4;stroke-dasharray:none" />
<polyline
   points="603.468,734.257 603.468,651.712 "
   id="polyline99"
   style="stroke-width:2.23121399;stroke-miterlimit:4;stroke-dasharray:none" />
<polyline
   points="663.704,633.865 663.704,444.235 "
   id="polyline101"
   style="stroke-width:2.23121399;stroke-miterlimit:4;stroke-dasharray:none" />
<polyline
   points="672.627,346.074 672.627,131.904 "
   id="polyline103"
   style="stroke-width:2.23121399;stroke-miterlimit:4;stroke-dasharray:none" />
<polyline
   points="708.322,685.177 708.322,546.858 "
   id="polyline105"
   style="stroke-width:2.23121399;stroke-miterlimit:4;stroke-dasharray:none" />
<polyline
   points="913.569,384 913.569,341.612 "
   id="polyline107"
   style="stroke-width:2.23121399;stroke-miterlimit:4;stroke-dasharray:none" />
<polyline
   points="913.569,136.366 913.569,93.9782 "
   id="polyline109"
   style="stroke-width:2.23121399;stroke-miterlimit:4;stroke-dasharray:none" />
<polyline
   points="969.342,584.784 969.342,446.466 "
   id="polyline111"
   style="stroke-width:2.23121399;stroke-miterlimit:4;stroke-dasharray:none" />
<polyline
   points="1013.96,685.176 1013.96,337.15 "
   id="polyline113"
   style="stroke-width:2.23121399;stroke-miterlimit:4;stroke-dasharray:none" />
<polyline
   points="1013.96,140.828 1013.96,82.8235 "
   id="polyline115"
   style="stroke-width:2.23121399;stroke-miterlimit:4;stroke-dasharray:none" />
<path
   d="m 16.732,330.458 a 6.69281,6.69281 0 0 0 -6.6928,6.692"
   id="path117"
   style="stroke-width:2.23121399;stroke-miterlimit:4;stroke-dasharray:none" />
<path
   d="m 10.0392,140.828 a 6.69281,6.69281 0 0 0 6.6928,6.693"
   id="path119"
   style="stroke-width:2.23121399;stroke-miterlimit:4;stroke-dasharray:none" />
<path
   d="M 10.0392,685.176 A 55.7734,55.7734 0 0 0 65.8126,740.95"
   id="path121"
   style="stroke-width:2.23121399;stroke-miterlimit:4;stroke-dasharray:none" />
<path
   d="M 65.8126,27.0501 A 55.7734,55.7734 0 0 0 10.0392,82.8235"
   id="path123"
   style="stroke-width:2.23121399;stroke-miterlimit:4;stroke-dasharray:none" />
<path
   d="M 65.8127,435.312 A 11.1547,11.1547 0 0 0 54.658,446.466"
   id="path125"
   style="stroke-width:2.23121399;stroke-miterlimit:4;stroke-dasharray:none" />
<path
   d="M 110.431,341.612 A 11.1547,11.1547 0 0 0 99.2767,330.458"
   id="path127"
   style="stroke-width:2.23121399;stroke-miterlimit:4;stroke-dasharray:none" />
<path
   d="M 99.2767,147.521 A 11.1547,11.1547 0 0 0 110.431,136.366"
   id="path129"
   style="stroke-width:2.23121399;stroke-miterlimit:4;stroke-dasharray:none" />
<path
   d="m 110.431,384 a 6.69281,6.69281 0 0 0 6.693,6.693"
   id="path131"
   style="stroke-width:2.23121399;stroke-miterlimit:4;stroke-dasharray:none" />
<path
   d="m 117.124,87.2854 a 6.69281,6.69281 0 0 0 -6.693,6.6928"
   id="path133"
   style="stroke-width:2.23121399;stroke-miterlimit:4;stroke-dasharray:none" />
<path
   d="M 54.658,584.784 A 111.547,111.547 0 0 0 166.205,696.331"
   id="path135"
   style="stroke-width:2.23121399;stroke-miterlimit:4;stroke-dasharray:none" />
<path
   d="M 315.678,546.858 A 111.547,111.547 0 0 0 204.131,435.312"
   id="path137"
   style="stroke-width:2.23121399;stroke-miterlimit:4;stroke-dasharray:none" />
<path
   d="m 304.523,696.331 a 11.1547,11.1547 0 0 0 11.155,-11.154"
   id="path139"
   style="stroke-width:2.23121399;stroke-miterlimit:4;stroke-dasharray:none" />
<path
   d="m 360.296,633.865 a 6.69281,6.69281 0 0 0 6.693,6.693"
   id="path141"
   style="stroke-width:2.23121399;stroke-miterlimit:4;stroke-dasharray:none" />
<path
   d="M 420.532,651.712 A 11.1547,11.1547 0 0 0 409.377,640.558"
   id="path143"
   style="stroke-width:2.23121399;stroke-miterlimit:4;stroke-dasharray:none" />
<path
   d="m 413.839,740.95 a 6.69281,6.69281 0 0 0 6.693,-6.693"
   id="path145"
   style="stroke-width:2.23121399;stroke-miterlimit:4;stroke-dasharray:none" />
<path
   d="m 414.194,305.245 a 6.69281,6.69281 0 0 0 0,9.465"
   id="path147"
   style="stroke-width:2.23121399;stroke-miterlimit:4;stroke-dasharray:none" />
<path
   d="m 414.194,163.269 a 6.69281,6.69281 0 0 0 0,9.465"
   id="path149"
   style="stroke-width:2.23121399;stroke-miterlimit:4;stroke-dasharray:none" />
<path
   d="m 435.716,283.722 a 6.69281,6.69281 0 0 0 1.269,-7.695"
   id="path151"
   style="stroke-width:2.23121399;stroke-miterlimit:4;stroke-dasharray:none" />
<path
   d="m 436.985,201.951 a 6.6928,6.6928 0 0 0 -1.269,-7.695"
   id="path153"
   style="stroke-width:2.23121399;stroke-miterlimit:4;stroke-dasharray:none" />
<path
   d="m 436.279,336.795 a 6.69281,6.69281 0 0 0 9.466,0"
   id="path155"
   style="stroke-width:2.23121399;stroke-miterlimit:4;stroke-dasharray:none" />
<path
   d="m 445.745,141.183 a 6.69281,6.69281 0 0 0 -9.466,0"
   id="path157"
   style="stroke-width:2.23121399;stroke-miterlimit:4;stroke-dasharray:none" />
<path
   d="m 474.962,314.004 a 6.6928,6.6928 0 0 0 -7.695,1.269"
   id="path159"
   style="stroke-width:2.23121399;stroke-miterlimit:4;stroke-dasharray:none" />
<path
   d="m 467.267,162.706 a 6.69281,6.69281 0 0 0 7.695,1.268"
   id="path161"
   style="stroke-width:2.23121399;stroke-miterlimit:4;stroke-dasharray:none" />
<path
   d="m 436.985,201.951 a 83.6601,83.6601 0 0 0 0,74.076"
   id="path163"
   style="stroke-width:2.23121399;stroke-miterlimit:4;stroke-dasharray:none" />
<path
   d="m 549.038,163.974 a 83.6601,83.6601 0 0 0 -74.076,0"
   id="path165"
   style="stroke-width:2.23121399;stroke-miterlimit:4;stroke-dasharray:none" />
<path
   d="m 587.015,276.027 a 83.6601,83.6601 0 0 0 0,-74.076"
   id="path167"
   style="stroke-width:2.23121399;stroke-miterlimit:4;stroke-dasharray:none" />
<path
   d="m 474.962,314.004 a 83.6601,83.6601 0 0 0 74.076,0"
   id="path169"
   style="stroke-width:2.23121399;stroke-miterlimit:4;stroke-dasharray:none" />
<path
   d="m 556.733,315.273 a 6.69281,6.69281 0 0 0 -7.695,-1.269"
   id="path171"
   style="stroke-width:2.23121399;stroke-miterlimit:4;stroke-dasharray:none" />
<path
   d="m 549.038,163.974 a 6.6928,6.6928 0 0 0 7.695,-1.268"
   id="path173"
   style="stroke-width:2.23121399;stroke-miterlimit:4;stroke-dasharray:none" />
<path
   d="m 578.255,336.795 a 6.69281,6.69281 0 0 0 9.465,0"
   id="path175"
   style="stroke-width:2.23121399;stroke-miterlimit:4;stroke-dasharray:none" />
<path
   d="m 587.72,141.183 a 6.69281,6.69281 0 0 0 -9.465,0"
   id="path177"
   style="stroke-width:2.23121399;stroke-miterlimit:4;stroke-dasharray:none" />
<path
   d="m 587.015,276.027 a 6.6928,6.6928 0 0 0 1.269,7.695"
   id="path179"
   style="stroke-width:2.23121399;stroke-miterlimit:4;stroke-dasharray:none" />
<path
   d="m 588.284,194.256 a 6.69281,6.69281 0 0 0 -1.269,7.695"
   id="path181"
   style="stroke-width:2.23121399;stroke-miterlimit:4;stroke-dasharray:none" />
<path
   d="m 609.806,314.71 a 6.69281,6.69281 0 0 0 0,-9.465"
   id="path183"
   style="stroke-width:2.23121399;stroke-miterlimit:4;stroke-dasharray:none" />
<path
   d="m 609.806,172.734 a 6.69281,6.69281 0 0 0 0,-9.465"
   id="path185"
   style="stroke-width:2.23121399;stroke-miterlimit:4;stroke-dasharray:none" />
<path
   d="m 603.468,734.257 a 6.69281,6.69281 0 0 0 6.693,6.693"
   id="path187"
   style="stroke-width:2.23121399;stroke-miterlimit:4;stroke-dasharray:none" />
<path
   d="m 614.623,640.558 a 11.1547,11.1547 0 0 0 -11.155,11.154"
   id="path189"
   style="stroke-width:2.23121399;stroke-miterlimit:4;stroke-dasharray:none" />
<path
   d="m 657.011,640.558 a 6.69281,6.69281 0 0 0 6.693,-6.693"
   id="path191"
   style="stroke-width:2.23121399;stroke-miterlimit:4;stroke-dasharray:none" />
<path
   d="m 708.322,685.177 a 11.1547,11.1547 0 0 0 11.155,11.154"
   id="path193"
   style="stroke-width:2.23121399;stroke-miterlimit:4;stroke-dasharray:none" />
<path
   d="M 819.869,435.312 A 111.547,111.547 0 0 0 708.322,546.858"
   id="path195"
   style="stroke-width:2.23121399;stroke-miterlimit:4;stroke-dasharray:none" />
<path
   d="M 857.795,696.331 A 111.547,111.547 0 0 0 969.342,584.784"
   id="path197"
   style="stroke-width:2.23121399;stroke-miterlimit:4;stroke-dasharray:none" />
<path
   d="M 906.876,390.693 A 6.69281,6.69281 0 0 0 913.569,384"
   id="path199"
   style="stroke-width:2.23121399;stroke-miterlimit:4;stroke-dasharray:none" />
<path
   d="m 913.569,93.9782 a 6.69281,6.69281 0 0 0 -6.693,-6.6928"
   id="path201"
   style="stroke-width:2.23121399;stroke-miterlimit:4;stroke-dasharray:none" />
<path
   d="m 924.723,330.458 a 11.1547,11.1547 0 0 0 -11.154,11.154"
   id="path203"
   style="stroke-width:2.23121399;stroke-miterlimit:4;stroke-dasharray:none" />
<path
   d="m 913.569,136.366 a 11.1547,11.1547 0 0 0 11.154,11.155"
   id="path205"
   style="stroke-width:2.23121399;stroke-miterlimit:4;stroke-dasharray:none" />
<path
   d="M 969.342,446.466 A 11.1547,11.1547 0 0 0 958.187,435.312"
   id="path207"
   style="stroke-width:2.23121399;stroke-miterlimit:4;stroke-dasharray:none" />
<path
   d="m 958.187,740.95 a 55.7734,55.7734 0 0 0 55.773,-55.774"
   id="path209"
   style="stroke-width:2.23121399;stroke-miterlimit:4;stroke-dasharray:none" />
<path
   d="M 1013.96,82.8235 A 55.7734,55.7734 0 0 0 958.187,27.0501"
   id="path211"
   style="stroke-width:2.23121399;stroke-miterlimit:4;stroke-dasharray:none" />
<path
   d="m 1013.96,337.15 a 6.69281,6.69281 0 0 0 -6.69,-6.692"
   id="path213"
   style="stroke-width:2.23121399;stroke-miterlimit:4;stroke-dasharray:none" />
<path
   d="m 1007.27,147.521 a 6.69281,6.69281 0 0 0 6.69,-6.693"
   id="path215"
   style="stroke-width:2.23121399;stroke-miterlimit:4;stroke-dasharray:none" />
</g>
</svg>
