<?xml version="1.0" encoding="UTF-8" standalone="no"?>
<svg
   xmlns:dc="http://purl.org/dc/elements/1.1/"
   xmlns:cc="http://creativecommons.org/ns#"
   xmlns:rdf="http://www.w3.org/1999/02/22-rdf-syntax-ns#"
   xmlns:svg="http://www.w3.org/2000/svg"
   xmlns="http://www.w3.org/2000/svg"
   xmlns:sodipodi="http://sodipodi.sourceforge.net/DTD/sodipodi-0.dtd"
   xmlns:inkscape="http://www.inkscape.org/namespaces/inkscape"
   viewBox="0 0 71.811027 120.94488"
   version="1.1"
   stroke-linecap="round"
   stroke-linejoin="round"
   fill-rule="evenodd"
   xml:space="preserve"
   id="svg123"
   sodipodi:docname="Profil 19 X 32.svg"
   width="19mm"
   height="32mm"
   inkscape:version="1.0.1 (3bc2e813f5, 2020-09-07)"><metadata
   id="metadata127"><rdf:RDF><cc:Work
       rdf:about=""><dc:format>image/svg+xml</dc:format><dc:type
         rdf:resource="http://purl.org/dc/dcmitype/StillImage" /><dc:title></dc:title></cc:Work></rdf:RDF></metadata><sodipodi:namedview
   pagecolor="#ffffff"
   bordercolor="#666666"
   borderopacity="1"
   objecttolerance="10"
   gridtolerance="10"
   guidetolerance="10"
   inkscape:pageopacity="0"
   inkscape:pageshadow="2"
   inkscape:window-width="1920"
   inkscape:window-height="1003"
   id="namedview125"
   showgrid="false"
   inkscape:document-units="mm"
   units="mm"
   inkscape:zoom="0.97470707"
   inkscape:cx="46.550989"
   inkscape:cy="284.53078"
   inkscape:window-x="0"
   inkscape:window-y="40"
   inkscape:window-maximized="1"
   inkscape:current-layer="svg123" />
<defs
   id="defs5">
<clipPath
   id="clipId0">
<path
   d="M 0,768 H 1024 V 0 H 0 Z"
   id="path2" />
</clipPath>
</defs>
<g
   clip-path="url(#clipId0)"
   fill="none"
   stroke="#000000"
   stroke-width="0.1"
   id="g7" />
<g
   clip-path="url(#clipId0)"
   fill="none"
   stroke="#000000"
   stroke-width="0.25"
   id="g121"
   style="stroke-width:2.35293967;stroke-miterlimit:4;stroke-dasharray:none"
   transform="matrix(0.16063022,0,0,0.16062984,-46.33716,-1.2094478)">
<polyline
   points="672,447.529 624.941,400.471 "
   id="polyline9"
   style="stroke-width:2.35293967;stroke-miterlimit:4;stroke-dasharray:none" />
<polyline
   points="432.139,334.213 408.846,310.92 "
   id="polyline11"
   style="stroke-width:2.35293967;stroke-miterlimit:4;stroke-dasharray:none" />
<polyline
   points="615.154,151.197 591.861,127.904 "
   id="polyline13"
   style="stroke-width:2.35293967;stroke-miterlimit:4;stroke-dasharray:none" />
<polyline
   points="615.154,300.938 592.455,278.238 "
   id="polyline15"
   style="stroke-width:2.35293967;stroke-miterlimit:4;stroke-dasharray:none" />
<polyline
   points="431.545,183.879 408.846,161.18 "
   id="polyline17"
   style="stroke-width:2.35293967;stroke-miterlimit:4;stroke-dasharray:none" />
<polyline
   points="581.879,334.213 559.18,311.514 "
   id="polyline19"
   style="stroke-width:2.35293967;stroke-miterlimit:4;stroke-dasharray:none" />
<polyline
   points="464.82,150.604 442.121,127.904 "
   id="polyline21"
   style="stroke-width:2.35293967;stroke-miterlimit:4;stroke-dasharray:none" />
<polyline
   points="347.294,760.471 408.471,760.471 "
   id="polyline23"
   style="stroke-width:2.35293967;stroke-miterlimit:4;stroke-dasharray:none" />
<polyline
   points="615.529,760.471 676.706,760.471 "
   id="polyline25"
   style="stroke-width:2.35293967;stroke-miterlimit:4;stroke-dasharray:none" />
<polyline
   points="359.059,654.588 403.765,654.588 "
   id="polyline27"
   style="stroke-width:2.35293967;stroke-miterlimit:4;stroke-dasharray:none" />
<polyline
   points="620.235,654.588 664.941,654.588 "
   id="polyline29"
   style="stroke-width:2.35293967;stroke-miterlimit:4;stroke-dasharray:none" />
<polyline
   points="399.059,400.471 624.941,400.471 "
   id="polyline31"
   style="stroke-width:2.35293967;stroke-miterlimit:4;stroke-dasharray:none" />
<polyline
   points="347.294,7.52941 676.706,7.52941 "
   id="polyline33"
   style="stroke-width:2.35293967;stroke-miterlimit:4;stroke-dasharray:none" />
<polyline
   points="442.121,334.213 464.82,311.514 "
   id="polyline35"
   style="stroke-width:2.35293967;stroke-miterlimit:4;stroke-dasharray:none" />
<polyline
   points="559.18,150.604 581.879,127.904 "
   id="polyline37"
   style="stroke-width:2.35293967;stroke-miterlimit:4;stroke-dasharray:none" />
<polyline
   points="352,447.529 399.059,400.471 "
   id="polyline39"
   style="stroke-width:2.35293967;stroke-miterlimit:4;stroke-dasharray:none" />
<polyline
   points="408.846,300.938 431.545,278.238 "
   id="polyline41"
   style="stroke-width:2.35293967;stroke-miterlimit:4;stroke-dasharray:none" />
<polyline
   points="592.455,183.879 615.154,161.18 "
   id="polyline43"
   style="stroke-width:2.35293967;stroke-miterlimit:4;stroke-dasharray:none" />
<polyline
   points="591.861,334.213 615.154,310.92 "
   id="polyline45"
   style="stroke-width:2.35293967;stroke-miterlimit:4;stroke-dasharray:none" />
<polyline
   points="408.846,151.197 432.139,127.904 "
   id="polyline47"
   style="stroke-width:2.35293967;stroke-miterlimit:4;stroke-dasharray:none" />
<polyline
   points="288.471,701.647 288.471,66.3529 "
   id="polyline49"
   style="stroke-width:2.35293967;stroke-miterlimit:4;stroke-dasharray:none" />
<polyline
   points="352,647.529 352,447.529 "
   id="polyline51"
   style="stroke-width:2.35293967;stroke-miterlimit:4;stroke-dasharray:none" />
<polyline
   points="415.529,753.412 415.529,666.353 "
   id="polyline53"
   style="stroke-width:2.35293967;stroke-miterlimit:4;stroke-dasharray:none" />
<polyline
   points="608.471,753.412 608.471,666.353 "
   id="polyline55"
   style="stroke-width:2.35293967;stroke-miterlimit:4;stroke-dasharray:none" />
<polyline
   points="672,647.529 672,447.529 "
   id="polyline57"
   style="stroke-width:2.35293967;stroke-miterlimit:4;stroke-dasharray:none" />
<polyline
   points="735.529,701.647 735.529,66.3529 "
   id="polyline59"
   style="stroke-width:2.35293967;stroke-miterlimit:4;stroke-dasharray:none" />
<path
   d="m 288.471,701.647 a 58.8235,58.8235 0 0 0 58.823,58.824"
   id="path61"
   style="stroke-width:2.35293967;stroke-miterlimit:4;stroke-dasharray:none" />
<path
   d="M 347.294,7.52941 A 58.8235,58.8235 0 0 0 288.471,66.3529"
   id="path63"
   style="stroke-width:2.35293967;stroke-miterlimit:4;stroke-dasharray:none" />
<path
   d="m 352,647.529 a 7.05882,7.05882 0 0 0 7.059,7.059"
   id="path65"
   style="stroke-width:2.35293967;stroke-miterlimit:4;stroke-dasharray:none" />
<path
   d="M 415.529,666.353 A 11.7647,11.7647 0 0 0 403.765,654.588"
   id="path67"
   style="stroke-width:2.35293967;stroke-miterlimit:4;stroke-dasharray:none" />
<path
   d="m 408.471,760.471 a 7.05882,7.05882 0 0 0 7.058,-7.059"
   id="path69"
   style="stroke-width:2.35293967;stroke-miterlimit:4;stroke-dasharray:none" />
<path
   d="m 408.846,300.938 a 7.05882,7.05882 0 0 0 0,9.982"
   id="path71"
   style="stroke-width:2.35293967;stroke-miterlimit:4;stroke-dasharray:none" />
<path
   d="m 408.846,151.197 a 7.05882,7.05882 0 0 0 0,9.983"
   id="path73"
   style="stroke-width:2.35293967;stroke-miterlimit:4;stroke-dasharray:none" />
<path
   d="m 431.545,278.238 a 7.05882,7.05882 0 0 0 1.338,-8.116"
   id="path75"
   style="stroke-width:2.35293967;stroke-miterlimit:4;stroke-dasharray:none" />
<path
   d="m 432.883,191.996 a 7.05881,7.05881 0 0 0 -1.338,-8.117"
   id="path77"
   style="stroke-width:2.35293967;stroke-miterlimit:4;stroke-dasharray:none" />
<path
   d="m 432.139,334.213 a 7.05882,7.05882 0 0 0 9.982,0"
   id="path79"
   style="stroke-width:2.35293967;stroke-miterlimit:4;stroke-dasharray:none" />
<path
   d="m 442.121,127.904 a 7.05882,7.05882 0 0 0 -9.982,0"
   id="path81"
   style="stroke-width:2.35293967;stroke-miterlimit:4;stroke-dasharray:none" />
<path
   d="m 472.937,310.176 a 7.05881,7.05881 0 0 0 -8.117,1.338"
   id="path83"
   style="stroke-width:2.35293967;stroke-miterlimit:4;stroke-dasharray:none" />
<path
   d="m 464.82,150.604 a 7.05882,7.05882 0 0 0 8.117,1.338"
   id="path85"
   style="stroke-width:2.35293967;stroke-miterlimit:4;stroke-dasharray:none" />
<path
   d="m 432.883,191.996 a 88.2353,88.2353 0 0 0 0,78.126"
   id="path87"
   style="stroke-width:2.35293967;stroke-miterlimit:4;stroke-dasharray:none" />
<path
   d="m 551.063,151.942 a 88.2353,88.2353 0 0 0 -78.126,0"
   id="path89"
   style="stroke-width:2.35293967;stroke-miterlimit:4;stroke-dasharray:none" />
<path
   d="m 591.117,270.122 a 88.2353,88.2353 0 0 0 0,-78.126"
   id="path91"
   style="stroke-width:2.35293967;stroke-miterlimit:4;stroke-dasharray:none" />
<path
   d="m 472.937,310.176 a 88.2353,88.2353 0 0 0 78.126,0"
   id="path93"
   style="stroke-width:2.35293967;stroke-miterlimit:4;stroke-dasharray:none" />
<path
   d="m 559.18,311.514 a 7.05882,7.05882 0 0 0 -8.117,-1.338"
   id="path95"
   style="stroke-width:2.35293967;stroke-miterlimit:4;stroke-dasharray:none" />
<path
   d="m 551.063,151.942 a 7.05881,7.05881 0 0 0 8.117,-1.338"
   id="path97"
   style="stroke-width:2.35293967;stroke-miterlimit:4;stroke-dasharray:none" />
<path
   d="m 581.879,334.213 a 7.05882,7.05882 0 0 0 9.982,0"
   id="path99"
   style="stroke-width:2.35293967;stroke-miterlimit:4;stroke-dasharray:none" />
<path
   d="m 591.861,127.904 a 7.05882,7.05882 0 0 0 -9.982,0"
   id="path101"
   style="stroke-width:2.35293967;stroke-miterlimit:4;stroke-dasharray:none" />
<path
   d="m 591.117,270.122 a 7.05881,7.05881 0 0 0 1.338,8.116"
   id="path103"
   style="stroke-width:2.35293967;stroke-miterlimit:4;stroke-dasharray:none" />
<path
   d="m 592.455,183.879 a 7.05882,7.05882 0 0 0 -1.338,8.117"
   id="path105"
   style="stroke-width:2.35293967;stroke-miterlimit:4;stroke-dasharray:none" />
<path
   d="m 615.154,310.92 a 7.05882,7.05882 0 0 0 0,-9.982"
   id="path107"
   style="stroke-width:2.35293967;stroke-miterlimit:4;stroke-dasharray:none" />
<path
   d="m 615.154,161.18 a 7.05882,7.05882 0 0 0 0,-9.983"
   id="path109"
   style="stroke-width:2.35293967;stroke-miterlimit:4;stroke-dasharray:none" />
<path
   d="m 608.471,753.412 a 7.05882,7.05882 0 0 0 7.058,7.059"
   id="path111"
   style="stroke-width:2.35293967;stroke-miterlimit:4;stroke-dasharray:none" />
<path
   d="m 620.235,654.588 a 11.7647,11.7647 0 0 0 -11.764,11.765"
   id="path113"
   style="stroke-width:2.35293967;stroke-miterlimit:4;stroke-dasharray:none" />
<path
   d="M 664.941,654.588 A 7.05882,7.05882 0 0 0 672,647.529"
   id="path115"
   style="stroke-width:2.35293967;stroke-miterlimit:4;stroke-dasharray:none" />
<path
   d="m 676.706,760.471 a 58.8235,58.8235 0 0 0 58.823,-58.824"
   id="path117"
   style="stroke-width:2.35293967;stroke-miterlimit:4;stroke-dasharray:none" />
<path
   d="M 735.529,66.3529 A 58.8235,58.8235 0 0 0 676.706,7.52941"
   id="path119"
   style="stroke-width:2.35293967;stroke-miterlimit:4;stroke-dasharray:none" />
</g>
</svg>
