<?xml version="1.0" encoding="UTF-8" standalone="no"?>
<svg
   xmlns:dc="http://purl.org/dc/elements/1.1/"
   xmlns:cc="http://creativecommons.org/ns#"
   xmlns:rdf="http://www.w3.org/1999/02/22-rdf-syntax-ns#"
   xmlns:svg="http://www.w3.org/2000/svg"
   xmlns="http://www.w3.org/2000/svg"
   xmlns:sodipodi="http://sodipodi.sourceforge.net/DTD/sodipodi-0.dtd"
   xmlns:inkscape="http://www.inkscape.org/namespaces/inkscape"
   viewBox="0 0 71.811027 170.07874"
   version="1.1"
   stroke-linecap="round"
   stroke-linejoin="round"
   fill-rule="evenodd"
   xml:space="preserve"
   id="svg171"
   sodipodi:docname="Profil 19 x 45.svg"
   width="19mm"
   height="45mm"
   inkscape:version="1.0.1 (3bc2e813f5, 2020-09-07)"><metadata
   id="metadata175"><rdf:RDF><cc:Work
       rdf:about=""><dc:format>image/svg+xml</dc:format><dc:type
         rdf:resource="http://purl.org/dc/dcmitype/StillImage" /><dc:title></dc:title></cc:Work></rdf:RDF></metadata><sodipodi:namedview
   pagecolor="#ffffff"
   bordercolor="#666666"
   borderopacity="1"
   objecttolerance="10"
   gridtolerance="10"
   guidetolerance="10"
   inkscape:pageopacity="0"
   inkscape:pageshadow="2"
   inkscape:window-width="1920"
   inkscape:window-height="1003"
   id="namedview173"
   showgrid="false"
   units="mm"
   inkscape:zoom="4.4038426"
   inkscape:cx="35.905512"
   inkscape:cy="85.03937"
   inkscape:window-x="0"
   inkscape:window-y="40"
   inkscape:window-maximized="1"
   inkscape:current-layer="svg171"
   inkscape:document-rotation="0"
   inkscape:document-units="mm" />
<defs
   id="defs5">
<clipPath
   id="clipId0">
<path
   d="M 0,768 H 1024 V 0 H 0 Z"
   id="path2" />
</clipPath>
</defs>
<g
   clip-path="url(#clipId0)"
   fill="none"
   stroke="#000000"
   stroke-width="0.1"
   id="g7" />
<g
   clip-path="url(#clipId0)"
   fill="none"
   stroke="#000000"
   stroke-width="0.25"
   id="g169"
   style="stroke-width:1.6734091;stroke-miterlimit:4;stroke-dasharray:none"
   transform="matrix(0.22588618,0,0,0.22588618,-79.748212,-1.7007896)">
<polyline
   points="625.778,537.935 592.314,504.471 "
   id="polyline9"
   style="stroke-width:1.6734091;stroke-miterlimit:4;stroke-dasharray:none" />
<polyline
   points="455.21,457.354 438.646,440.79 "
   id="polyline11"
   style="stroke-width:1.6734091;stroke-miterlimit:4;stroke-dasharray:none" />
<polyline
   points="585.354,327.21 568.79,310.646 "
   id="polyline13"
   style="stroke-width:1.6734091;stroke-miterlimit:4;stroke-dasharray:none" />
<polyline
   points="666.054,492.877 637.371,464.195 "
   id="polyline15"
   style="stroke-width:1.6734091;stroke-miterlimit:4;stroke-dasharray:none" />
<polyline
   points="585.354,433.692 569.213,417.55 "
   id="polyline17"
   style="stroke-width:1.6734091;stroke-miterlimit:4;stroke-dasharray:none" />
<polyline
   points="454.787,350.45 438.646,334.308 "
   id="polyline19"
   style="stroke-width:1.6734091;stroke-miterlimit:4;stroke-dasharray:none" />
<polyline
   points="431.686,263.529 398.222,230.065 "
   id="polyline21"
   style="stroke-width:1.6734091;stroke-miterlimit:4;stroke-dasharray:none" />
<polyline
   points="561.692,457.354 545.55,441.213 "
   id="polyline23"
   style="stroke-width:1.6734091;stroke-miterlimit:4;stroke-dasharray:none" />
<polyline
   points="478.45,326.787 462.308,310.646 "
   id="polyline25"
   style="stroke-width:1.6734091;stroke-miterlimit:4;stroke-dasharray:none" />
<polyline
   points="394.876,760.471 438.379,760.471 "
   id="polyline27"
   style="stroke-width:1.6734091;stroke-miterlimit:4;stroke-dasharray:none" />
<polyline
   points="585.621,760.471 629.124,760.471 "
   id="polyline29"
   style="stroke-width:1.6734091;stroke-miterlimit:4;stroke-dasharray:none" />
<polyline
   points="403.242,685.176 435.033,685.176 "
   id="polyline31"
   style="stroke-width:1.6734091;stroke-miterlimit:4;stroke-dasharray:none" />
<polyline
   points="588.967,685.176 620.758,685.176 "
   id="polyline33"
   style="stroke-width:1.6734091;stroke-miterlimit:4;stroke-dasharray:none" />
<polyline
   points="431.686,504.471 592.314,504.471 "
   id="polyline35"
   style="stroke-width:1.6734091;stroke-miterlimit:4;stroke-dasharray:none" />
<polyline
   points="431.686,263.529 592.314,263.529 "
   id="polyline37"
   style="stroke-width:1.6734091;stroke-miterlimit:4;stroke-dasharray:none" />
<polyline
   points="588.967,82.8235 620.758,82.8235 "
   id="polyline39"
   style="stroke-width:1.6734091;stroke-miterlimit:4;stroke-dasharray:none" />
<polyline
   points="403.242,82.8235 435.033,82.8235 "
   id="polyline41"
   style="stroke-width:1.6734091;stroke-miterlimit:4;stroke-dasharray:none" />
<polyline
   points="394.876,7.52941 438.379,7.52941 "
   id="polyline43"
   style="stroke-width:1.6734091;stroke-miterlimit:4;stroke-dasharray:none" />
<polyline
   points="585.621,7.52941 629.124,7.52941 "
   id="polyline45"
   style="stroke-width:1.6734091;stroke-miterlimit:4;stroke-dasharray:none" />
<polyline
   points="462.308,457.354 478.45,441.213 "
   id="polyline47"
   style="stroke-width:1.6734091;stroke-miterlimit:4;stroke-dasharray:none" />
<polyline
   points="545.55,326.787 561.692,310.646 "
   id="polyline49"
   style="stroke-width:1.6734091;stroke-miterlimit:4;stroke-dasharray:none" />
<polyline
   points="398.222,537.935 431.686,504.471 "
   id="polyline51"
   style="stroke-width:1.6734091;stroke-miterlimit:4;stroke-dasharray:none" />
<polyline
   points="438.646,433.692 454.787,417.55 "
   id="polyline53"
   style="stroke-width:1.6734091;stroke-miterlimit:4;stroke-dasharray:none" />
<polyline
   points="569.213,350.45 585.354,334.308 "
   id="polyline55"
   style="stroke-width:1.6734091;stroke-miterlimit:4;stroke-dasharray:none" />
<polyline
   points="637.371,303.805 666.054,275.123 "
   id="polyline57"
   style="stroke-width:1.6734091;stroke-miterlimit:4;stroke-dasharray:none" />
<polyline
   points="568.79,457.354 585.354,440.79 "
   id="polyline59"
   style="stroke-width:1.6734091;stroke-miterlimit:4;stroke-dasharray:none" />
<polyline
   points="438.646,327.21 455.21,310.646 "
   id="polyline61"
   style="stroke-width:1.6734091;stroke-miterlimit:4;stroke-dasharray:none" />
<polyline
   points="592.314,263.529 625.778,230.065 "
   id="polyline63"
   style="stroke-width:1.6734091;stroke-miterlimit:4;stroke-dasharray:none" />
<polyline
   points="353.046,718.641 353.046,49.3595 "
   id="polyline65"
   style="stroke-width:1.6734091;stroke-miterlimit:4;stroke-dasharray:none" />
<polyline
   points="398.222,230.065 398.222,87.8431 "
   id="polyline67"
   style="stroke-width:1.6734091;stroke-miterlimit:4;stroke-dasharray:none" />
<polyline
   points="398.222,680.157 398.222,537.935 "
   id="polyline69"
   style="stroke-width:1.6734091;stroke-miterlimit:4;stroke-dasharray:none" />
<polyline
   points="443.399,74.4575 443.399,12.549 "
   id="polyline71"
   style="stroke-width:1.6734091;stroke-miterlimit:4;stroke-dasharray:none" />
<polyline
   points="443.399,755.451 443.399,693.542 "
   id="polyline73"
   style="stroke-width:1.6734091;stroke-miterlimit:4;stroke-dasharray:none" />
<polyline
   points="580.601,74.4575 580.601,12.549 "
   id="polyline75"
   style="stroke-width:1.6734091;stroke-miterlimit:4;stroke-dasharray:none" />
<polyline
   points="580.601,755.451 580.601,693.542 "
   id="polyline77"
   style="stroke-width:1.6734091;stroke-miterlimit:4;stroke-dasharray:none" />
<polyline
   points="625.778,230.065 625.778,87.8431 "
   id="polyline79"
   style="stroke-width:1.6734091;stroke-miterlimit:4;stroke-dasharray:none" />
<polyline
   points="625.778,680.157 625.778,537.935 "
   id="polyline81"
   style="stroke-width:1.6734091;stroke-miterlimit:4;stroke-dasharray:none" />
<polyline
   points="632.471,452.363 632.471,315.637 "
   id="polyline83"
   style="stroke-width:1.6734091;stroke-miterlimit:4;stroke-dasharray:none" />
<polyline
   points="670.954,718.641 670.954,504.708 "
   id="polyline85"
   style="stroke-width:1.6734091;stroke-miterlimit:4;stroke-dasharray:none" />
<polyline
   points="670.954,263.292 670.954,49.3595 "
   id="polyline87"
   style="stroke-width:1.6734091;stroke-miterlimit:4;stroke-dasharray:none" />
<path
   d="m 353.046,718.641 a 41.8301,41.8301 0 0 0 41.83,41.83"
   id="path89"
   style="stroke-width:1.6734091;stroke-miterlimit:4;stroke-dasharray:none" />
<path
   d="M 394.876,7.52941 A 41.8301,41.8301 0 0 0 353.046,49.3595"
   id="path91"
   style="stroke-width:1.6734091;stroke-miterlimit:4;stroke-dasharray:none" />
<path
   d="m 398.222,680.157 a 5.01961,5.01961 0 0 0 5.02,5.019"
   id="path93"
   style="stroke-width:1.6734091;stroke-miterlimit:4;stroke-dasharray:none" />
<path
   d="m 403.242,82.8235 a 5.01961,5.01961 0 0 0 -5.02,5.0196"
   id="path95"
   style="stroke-width:1.6734091;stroke-miterlimit:4;stroke-dasharray:none" />
<path
   d="m 443.399,693.542 a 8.36601,8.36601 0 0 0 -8.366,-8.366"
   id="path97"
   style="stroke-width:1.6734091;stroke-miterlimit:4;stroke-dasharray:none" />
<path
   d="m 435.033,82.8235 a 8.36601,8.36601 0 0 0 8.366,-8.366"
   id="path99"
   style="stroke-width:1.6734091;stroke-miterlimit:4;stroke-dasharray:none" />
<path
   d="m 438.379,760.471 a 5.01961,5.01961 0 0 0 5.02,-5.02"
   id="path101"
   style="stroke-width:1.6734091;stroke-miterlimit:4;stroke-dasharray:none" />
<path
   d="m 443.399,12.549 a 5.01961,5.01961 0 0 0 -5.02,-5.01959"
   id="path103"
   style="stroke-width:1.6734091;stroke-miterlimit:4;stroke-dasharray:none" />
<path
   d="m 438.646,433.692 a 5.01961,5.01961 0 0 0 0,7.098"
   id="path105"
   style="stroke-width:1.6734091;stroke-miterlimit:4;stroke-dasharray:none" />
<path
   d="m 438.646,327.21 a 5.01961,5.01961 0 0 0 0,7.098"
   id="path107"
   style="stroke-width:1.6734091;stroke-miterlimit:4;stroke-dasharray:none" />
<path
   d="m 454.787,417.55 a 5.01961,5.01961 0 0 0 0.952,-5.772"
   id="path109"
   style="stroke-width:1.6734091;stroke-miterlimit:4;stroke-dasharray:none" />
<path
   d="m 455.739,356.222 a 5.0196,5.0196 0 0 0 -0.952,-5.772"
   id="path111"
   style="stroke-width:1.6734091;stroke-miterlimit:4;stroke-dasharray:none" />
<path
   d="m 455.21,457.354 a 5.01961,5.01961 0 0 0 7.098,0"
   id="path113"
   style="stroke-width:1.6734091;stroke-miterlimit:4;stroke-dasharray:none" />
<path
   d="m 462.308,310.646 a 5.01961,5.01961 0 0 0 -7.098,0"
   id="path115"
   style="stroke-width:1.6734091;stroke-miterlimit:4;stroke-dasharray:none" />
<path
   d="m 484.222,440.261 a 5.0196,5.0196 0 0 0 -5.772,0.952"
   id="path117"
   style="stroke-width:1.6734091;stroke-miterlimit:4;stroke-dasharray:none" />
<path
   d="m 478.45,326.787 a 5.01961,5.01961 0 0 0 5.772,0.952"
   id="path119"
   style="stroke-width:1.6734091;stroke-miterlimit:4;stroke-dasharray:none" />
<path
   d="m 455.739,356.222 a 62.7451,62.7451 0 0 0 0,55.556"
   id="path121"
   style="stroke-width:1.6734091;stroke-miterlimit:4;stroke-dasharray:none" />
<path
   d="m 539.778,327.739 a 62.7451,62.7451 0 0 0 -55.556,0"
   id="path123"
   style="stroke-width:1.6734091;stroke-miterlimit:4;stroke-dasharray:none" />
<path
   d="m 568.261,411.778 a 62.7451,62.7451 0 0 0 0,-55.556"
   id="path125"
   style="stroke-width:1.6734091;stroke-miterlimit:4;stroke-dasharray:none" />
<path
   d="m 484.222,440.261 a 62.7451,62.7451 0 0 0 55.556,0"
   id="path127"
   style="stroke-width:1.6734091;stroke-miterlimit:4;stroke-dasharray:none" />
<path
   d="m 545.55,441.213 a 5.01961,5.01961 0 0 0 -5.772,-0.952"
   id="path129"
   style="stroke-width:1.6734091;stroke-miterlimit:4;stroke-dasharray:none" />
<path
   d="m 539.778,327.739 a 5.0196,5.0196 0 0 0 5.772,-0.952"
   id="path131"
   style="stroke-width:1.6734091;stroke-miterlimit:4;stroke-dasharray:none" />
<path
   d="m 561.692,457.354 a 5.01961,5.01961 0 0 0 7.098,0"
   id="path133"
   style="stroke-width:1.6734091;stroke-miterlimit:4;stroke-dasharray:none" />
<path
   d="m 568.79,310.646 a 5.01961,5.01961 0 0 0 -7.098,0"
   id="path135"
   style="stroke-width:1.6734091;stroke-miterlimit:4;stroke-dasharray:none" />
<path
   d="m 568.261,411.778 a 5.0196,5.0196 0 0 0 0.952,5.772"
   id="path137"
   style="stroke-width:1.6734091;stroke-miterlimit:4;stroke-dasharray:none" />
<path
   d="m 569.213,350.45 a 5.01961,5.01961 0 0 0 -0.952,5.772"
   id="path139"
   style="stroke-width:1.6734091;stroke-miterlimit:4;stroke-dasharray:none" />
<path
   d="m 585.354,440.79 a 5.01961,5.01961 0 0 0 0,-7.098"
   id="path141"
   style="stroke-width:1.6734091;stroke-miterlimit:4;stroke-dasharray:none" />
<path
   d="m 585.354,334.308 a 5.01961,5.01961 0 0 0 0,-7.098"
   id="path143"
   style="stroke-width:1.6734091;stroke-miterlimit:4;stroke-dasharray:none" />
<path
   d="m 580.601,755.451 a 5.01961,5.01961 0 0 0 5.02,5.02"
   id="path145"
   style="stroke-width:1.6734091;stroke-miterlimit:4;stroke-dasharray:none" />
<path
   d="m 585.621,7.52941 a 5.01961,5.01961 0 0 0 -5.02,5.01959"
   id="path147"
   style="stroke-width:1.6734091;stroke-miterlimit:4;stroke-dasharray:none" />
<path
   d="m 588.967,685.176 a 8.36601,8.36601 0 0 0 -8.366,8.366"
   id="path149"
   style="stroke-width:1.6734091;stroke-miterlimit:4;stroke-dasharray:none" />
<path
   d="m 580.601,74.4575 a 8.36601,8.36601 0 0 0 8.366,8.366"
   id="path151"
   style="stroke-width:1.6734091;stroke-miterlimit:4;stroke-dasharray:none" />
<path
   d="m 620.758,685.176 a 5.01961,5.01961 0 0 0 5.02,-5.019"
   id="path153"
   style="stroke-width:1.6734091;stroke-miterlimit:4;stroke-dasharray:none" />
<path
   d="m 625.778,87.8431 a 5.01961,5.01961 0 0 0 -5.02,-5.0196"
   id="path155"
   style="stroke-width:1.6734091;stroke-miterlimit:4;stroke-dasharray:none" />
<path
   d="m 629.124,760.471 a 41.8301,41.8301 0 0 0 41.83,-41.83"
   id="path157"
   style="stroke-width:1.6734091;stroke-miterlimit:4;stroke-dasharray:none" />
<path
   d="M 670.954,49.3595 A 41.8301,41.8301 0 0 0 629.124,7.52941"
   id="path159"
   style="stroke-width:1.6734091;stroke-miterlimit:4;stroke-dasharray:none" />
<path
   d="m 632.471,452.363 a 16.732,16.732 0 0 0 4.9,11.832"
   id="path161"
   style="stroke-width:1.6734091;stroke-miterlimit:4;stroke-dasharray:none" />
<path
   d="m 637.371,303.805 a 16.732,16.732 0 0 0 -4.9,11.832"
   id="path163"
   style="stroke-width:1.6734091;stroke-miterlimit:4;stroke-dasharray:none" />
<path
   d="m 670.954,504.708 a 16.732,16.732 0 0 0 -4.9,-11.831"
   id="path165"
   style="stroke-width:1.6734091;stroke-miterlimit:4;stroke-dasharray:none" />
<path
   d="m 666.054,275.123 a 16.732,16.732 0 0 0 4.9,-11.831"
   id="path167"
   style="stroke-width:1.6734091;stroke-miterlimit:4;stroke-dasharray:none" />
</g>
</svg>
