<?xml version="1.0" encoding="UTF-8" standalone="no"?>
<svg
   xmlns:dc="http://purl.org/dc/elements/1.1/"
   xmlns:cc="http://creativecommons.org/ns#"
   xmlns:rdf="http://www.w3.org/1999/02/22-rdf-syntax-ns#"
   xmlns:svg="http://www.w3.org/2000/svg"
   xmlns="http://www.w3.org/2000/svg"
   xmlns:sodipodi="http://sodipodi.sourceforge.net/DTD/sodipodi-0.dtd"
   xmlns:inkscape="http://www.inkscape.org/namespaces/inkscape"
   width="40mm"
   height="40mm"
   viewBox="0 0 40 40"
   version="1.1"
   id="svg8"
   inkscape:version="1.0 (4035a4fb49, 2020-05-01)"
   sodipodi:docname="SMT 40x40.svg">
  <defs
     id="defs2" />
  <sodipodi:namedview
     inkscape:snap-page="true"
     inkscape:snap-global="true"
     id="base"
     pagecolor="#ffffff"
     bordercolor="#666666"
     borderopacity="1.0"
     inkscape:pageopacity="0.0"
     inkscape:pageshadow="2"
     inkscape:zoom="1.4142136"
     inkscape:cx="45.608413"
     inkscape:cy="33.102369"
     inkscape:document-units="mm"
     inkscape:current-layer="layer1"
     inkscape:document-rotation="0"
     showgrid="false"
     inkscape:window-width="1920"
     inkscape:window-height="1004"
     inkscape:window-x="0"
     inkscape:window-y="48"
     inkscape:window-maximized="1">
    <inkscape:grid
       dotted="true"
       type="xygrid"
       id="grid833"
       originx="19.999999"
       originy="19.999999"
       spacingx="0.24999999"
       spacingy="0.24999999"
       empspacing="4"
       units="mm" />
  </sodipodi:namedview>
  <metadata
     id="metadata5">
    <rdf:RDF>
      <cc:Work
         rdf:about="">
        <dc:format>image/svg+xml</dc:format>
        <dc:type
           rdf:resource="http://purl.org/dc/dcmitype/StillImage" />
        <dc:title></dc:title>
      </cc:Work>
    </rdf:RDF>
  </metadata>
  <g
     inkscape:label="Layer 1"
     inkscape:groupmode="layer"
     id="layer1">
    <path
       d="m -20,-20 v 16.000057 h 4.499984 v -7.749915 l 7.7499141,7.749915 V 4.000085 L -15.500016,11.75 V 4.000085 H -20 V 20.000142 H -3.9999433 V 15.500159 H -11.749858 L -3.9999433,7.750243 H 4.000085 L 11.75,15.500159 H 4.000085 v 4.499983 H 20.000142 V 4.000085 H 15.500159 V 11.75 L 7.7502431,4.000085 v -8.000028 l 7.7499159,-7.749915 v 7.749915 h 4.499983 V -20 H 4.000085 v 4.499983 H 11.75 l -7.749915,7.749915 h -8.0000283 l -7.7499147,-7.749915 h 7.7499147 V -20 Z m 19.9930946,16.68787 a 3.3119957,3.3119957 0 0 1 0.00671804,0 A 3.3119957,3.3119957 0 0 1 3.3117551,-1.87e-4 3.3119957,3.3119957 0 0 1 -1.873603e-4,3.311755 3.3119957,3.3119957 0 0 1 -3.3121298,-1.87e-4 3.3119957,3.3119957 0 0 1 -0.0069054,-3.31213 Z"
       style="fill:#ac9393;fill-opacity:1;stroke:none;stroke-width:0.499999;stroke-linecap:square;stroke-linejoin:round;stroke-miterlimit:4;stroke-dasharray:none"
       id="rect967" />
  </g>
</svg>
